<?xml version="1.0" encoding="UTF-8"?>
<svg data-bbox="0 0 24 24" xmlns="http://www.w3.org/2000/svg" viewBox="0 0 24 24" height="800" width="800" data-type="ugc">
    <g fill-rule="evenodd">
        <path d="M24 0v24H0V0z" fill="none"/>
        <path stroke-linecap="round" stroke-width="2" stroke="#0C0310" d="M18 12a3 3 0 1 1-6 0 3 3 0 0 1 6 0z" fill="none"/>
        <path stroke-linecap="round" stroke-width="2" stroke="#0C0310" d="M6 18a3 3 0 0 1 3-3h3v3a3 3 0 0 1-3 3h0a3 3 0 0 1-3-3z" fill="none"/>
        <path stroke-linecap="round" stroke-width="2" stroke="#0C0310" d="M6 12a3 3 0 0 1 3-3h3v6H9a3 3 0 0 1-3-3z" fill="none"/>
        <path stroke-linecap="round" stroke-width="2" stroke="#0C0310" d="M6 6a3 3 0 0 1 3-3h3v6H9a3 3 0 0 1-3-3z" fill="none"/>
        <path stroke-linecap="round" stroke-width="2" stroke="#0C0310" d="M12 3h3a3 3 0 0 1 3 3h0a3 3 0 0 1-3 3h-3z" fill="none"/>
    </g>
</svg>
